# xmcd CD database file
#
# Track frame offsets:
#	150
#	11611
#	17835
#	32043
#	50847
#	59936
#	70770
#	83659
#	96305
#	107042
#	118925
#	127001
#	140439
#	154286
#	170710
#	184992
#	198238
#	214659
#	228428
#	242450
#
# Disc length: 3335 seconds
#
# Revision: 2
# Processed by: cddbd v1.4PL0 Copyright (c) Steve Scherf et al.
# Submitted via: CDex 1.40Release
#
DISCID=280d0514
DTITLE=Hamilton County Bluegrass Band - Very Best Of
DYEAR=2002
DGENRE=Bluegrass
TTITLE0=Orange Blossom Special
TTITLE1=Bluegrass Express
TTITLE2=Copperfields
TTITLE3=Gentle On My Mind
TTITLE4=Tiger Hunting In The Ureweras
TTITLE5=Roll Muddy River
TTITLE6=Bill Cheatham
TTITLE7=Carolina On My Mind
TTITLE8=Train That I Ride
TTITLE9=Fox On The Run
TTITLE10=Sally Goodin'
TTITLE11=Old Times (It's Easy To Forget)
TTITLE12=Take Me Home Country Roads
TTITLE13=Body And Soul
TTITLE14=Kersbrook Cottage
TTITLE15=Paradise
TTITLE16=Ring-A-Ding
TTITLE17=You Ain't Goin' Nowhere
TTITLE18=Wash My Face In The Morning Dew
TTITLE19=Foggy Mountain Breakdown
EXTD=YEAR: 2002 ID3G: 89
EXTT0=
EXTT1=
EXTT2=
EXTT3=
EXTT4=
EXTT5=
EXTT6=
EXTT7=
EXTT8=
EXTT9=
EXTT10=
EXTT11=
EXTT12=
EXTT13=
EXTT14=
EXTT15=
EXTT16=
EXTT17=
EXTT18=
EXTT19=
PLAYORDER=
